<svg width="48" height="39" viewBox="0 0 48 39" fill="none" xmlns="http://www.w3.org/2000/svg">
<path d="M35.5907 13.9455C33.9836 7.29512 30.8378 0.13623 27.7304 0.13623C27.5765 0.13623 27.423 0.154357 27.2753 0.189841C26.598 0.353369 26.0588 0.869425 25.6631 1.70712C25.6211 1.74029 25.5752 1.76575 25.5405 1.81011C23.801 4.03395 17.5717 11.3791 10.4654 13.0967L5.03566 14.4978C5.01406 14.5029 4.99323 14.5094 4.97202 14.516C3.30811 14.9734 1.90388 16.0197 0.999848 17.4807C0.0545251 19.01 -0.233174 20.8169 0.191057 22.5703C0.615318 24.3233 1.696 25.8001 3.2353 26.7284C4.76769 27.6529 6.57921 27.9275 8.33603 27.5036L9.46182 27.2317H9.46298H9.46336L10.8175 26.9043L15.3104 36.1365C15.8955 37.3376 17.102 38.0376 18.3567 38.0376C18.8526 38.0376 19.3564 37.9288 19.8312 37.6974C21.507 36.8809 22.207 34.8533 21.3909 33.1768L17.7581 25.7121C24.2446 25.6573 30.8683 28.6719 32.382 29.4062C32.9239 29.81 33.4727 30.0337 34.0208 30.0337C34.1747 30.0337 34.3282 30.0156 34.4759 29.9797C35.9103 29.633 36.7345 27.7262 36.8602 24.4644C36.9732 21.5351 36.5227 17.7997 35.5909 13.945L35.5907 13.9455ZM7.99682 26.1069C6.61184 26.4424 5.18362 26.2257 3.97637 25.4975C2.76882 24.7693 1.91949 23.6092 1.58705 22.2327C1.2542 20.8558 1.47905 19.4361 2.22189 18.2361C2.95355 17.0525 4.10519 16.2124 5.46864 15.8691L5.94729 15.753L8.42498 26.0028L7.99682 26.1069ZM19.2014 36.4051C18.2384 36.8741 17.0709 36.4714 16.6027 35.5076L14.972 32.1575L18.5157 30.5569L20.0978 33.8071C20.5671 34.7701 20.1645 35.9358 19.2014 36.4051ZM17.8867 29.2633L14.3429 30.8639L12.2478 26.5588L13.912 26.1561C14.6591 25.976 15.4232 25.8569 16.1949 25.7874L17.8867 29.2633ZM13.5739 24.7592L9.82265 25.6656L7.34496 15.4148L10.8034 14.5771C16.7792 13.1326 22.0929 8.01454 24.9504 4.78981C24.9249 5.08332 24.9041 5.38647 24.8914 5.70582C24.8323 7.2308 24.9295 8.97765 25.1652 10.8432C25.1687 10.8698 25.1617 10.8952 25.1679 10.9222C25.1702 10.9311 25.1768 10.9373 25.1791 10.9462C25.3958 12.6332 25.7233 14.4147 26.161 16.2255C26.5899 18.0008 27.1299 19.8116 27.7477 21.5137C27.7512 21.5473 27.7435 21.5797 27.7516 21.6132C27.7755 21.7112 27.8218 21.7945 27.8789 21.8705C28.5882 23.7716 29.3973 25.5152 30.2609 26.9022C26.3948 25.3687 19.5865 23.3052 13.5734 24.7593L13.5739 24.7592ZM26.7018 11.4772C27.7849 11.7753 29.0707 13.2537 29.6154 15.5046C30.1557 17.7415 29.6979 19.6322 28.8783 20.4028C28.4082 19.0502 27.9592 17.5479 27.5581 15.8864C27.1936 14.3795 26.9094 12.8969 26.7018 11.4772ZM35.4238 24.4087C35.3193 27.1019 34.703 28.4458 34.1376 28.5823C34.1002 28.5916 34.0612 28.5954 34.0203 28.5954C33.8931 28.5954 33.7515 28.5561 33.598 28.4805C33.5379 28.4049 33.4626 28.3393 33.3712 28.2919C33.3415 28.2764 33.264 28.2359 33.1479 28.1785C32.1077 27.3207 30.7038 25.1508 29.3998 21.8142C31.0197 20.8192 31.7259 18.1163 31.0127 15.1657C30.2957 12.1998 28.4232 10.1081 26.5125 9.98362C26.3467 8.45587 26.2788 7.0242 26.3274 5.75997C26.4315 3.06674 27.0479 1.72373 27.613 1.58717C27.6504 1.57792 27.6893 1.57406 27.7302 1.57406C29.1164 1.57406 32.2154 6.09975 34.1932 14.2824C35.0949 18.012 35.5316 21.6078 35.4239 24.4079L35.4238 24.4087Z" fill="white"/>
<path d="M41.0806 13.503C40.7631 13.4965 40.4773 13.2782 40.3983 12.955C40.3038 12.5697 40.5398 12.1805 40.9251 12.0856L45.6216 10.9332C46.0065 10.8379 46.3961 11.0747 46.491 11.46C46.5855 11.8453 46.3494 12.2345 45.9641 12.3294L41.2676 13.4818C41.2051 13.4973 41.1423 13.5046 41.0806 13.503Z" fill="white"/>
<path d="M37.523 5.64762C37.3305 5.63914 37.1419 5.55351 37.0069 5.39538C36.7493 5.093 36.7863 4.63904 37.0887 4.38175L41.3236 0.780142C41.6256 0.523654 42.0799 0.559525 42.3364 0.861907C42.5941 1.16429 42.5571 1.61825 42.2547 1.87554L38.0198 5.47715C37.8763 5.60018 37.6985 5.65533 37.523 5.64762Z" fill="white"/>
<path d="M47.4035 23.3905C47.309 23.4067 47.2095 23.4044 47.1092 23.3793L41.9028 22.0931C41.5168 21.9978 41.2827 21.6083 41.3775 21.2234C41.4716 20.8381 41.8604 20.6009 42.2473 20.6981L47.4536 21.9843C47.8397 22.0796 48.0738 22.4691 47.9789 22.854C47.9091 23.1398 47.6766 23.3435 47.4035 23.3905Z" fill="white"/>
</svg>
