<svg width="48" height="48" viewBox="0 0 48 48" fill="none" xmlns="http://www.w3.org/2000/svg">
<path d="M23.9888 1.80005C23.9198 1.80105 23.8586 1.82248 23.7953 1.84056C23.7668 1.85563 23.7313 1.85563 23.7045 1.86166C23.5693 1.92025 23.4651 2.02404 23.3851 2.14592C23.358 2.18643 23.3245 2.22226 23.3061 2.2688C23.2987 2.28688 23.3001 2.30931 23.2941 2.32739C23.2716 2.39938 23.2502 2.47137 23.2502 2.55005V10.4103L10.8166 19.1875C10.6181 19.3285 10.5002 19.5565 10.5002 19.7999V22.0499C10.5002 22.4641 10.8361 22.7999 11.2502 22.7999H12.0002V24.2999H3.00032C2.71573 24.3002 2.45624 24.4613 2.32935 24.7158L0.0793752 29.2158C-0.168388 29.714 0.19388 30.2993 0.750347 30.2999H3.00032V45.2999H2.25033C1.23617 45.2849 1.23617 46.8143 2.25033 46.7999H45.7498C46.764 46.815 46.764 45.2855 45.7498 45.2999H44.9998V30.2999H47.2498C47.8062 30.2992 48.1682 29.7143 47.9207 29.2158L45.6708 24.7158C45.5445 24.4613 45.2847 24.3002 45.0001 24.2999H36.0003V22.7999H36.7502C37.1644 22.7999 37.5002 22.4641 37.5002 22.0499V19.7999C37.5002 19.5565 37.3824 19.3281 37.1838 19.1875L24.7503 10.4103V7.80007H33.0002C33.7177 7.80007 34.0231 6.88601 33.4512 6.45238L31.2511 4.80306L33.4512 3.15074C34.0294 2.71815 33.722 1.79842 33.0002 1.80005H24.0003H23.9942H23.9882L23.9888 1.80005ZM24.7505 3.30005H30.7534L29.5494 4.20237C29.151 4.50237 29.151 5.1004 29.5494 5.40066L30.7477 6.29998H24.7508V3.29997L24.7505 3.30005ZM24.0005 11.7201L36.0004 20.1898V21.3H30.0004C28.9863 21.285 28.9863 22.8144 30.0004 22.8H34.5004V42.3001H28.5005V34.8001H29.7982C30.8124 34.8151 30.8124 33.2857 29.7982 33.3001H18.203C17.1888 33.285 17.1888 34.8145 18.203 34.8001H19.5007V42.3001H13.5008V22.8H18.0008C19.0149 22.8151 19.0149 21.2856 18.0008 21.3H12.0008V20.1898L24.0005 11.7201ZM24.0005 13.8001C21.5242 13.8001 19.5006 15.8237 19.5006 18.3001C19.5006 20.7765 21.5242 22.8001 24.0005 22.8001C26.4769 22.8001 28.5005 20.7765 28.5005 18.3001C28.5005 15.8237 26.4769 13.8001 24.0005 13.8001ZM24.0005 15.3001C25.6663 15.3001 27.0005 16.6343 27.0005 18.3001C27.0005 19.9659 25.6663 21.3001 24.0005 21.3001C22.3348 21.3001 21.0006 19.9659 21.0006 18.3001C21.0006 16.6343 22.3348 15.3001 24.0005 15.3001ZM24.0005 16.8001C23.1809 16.8001 22.5005 17.4808 22.5005 18.3001C22.5005 19.1197 23.1809 19.8001 24.0005 19.8001C24.8202 19.8001 25.5005 19.1197 25.5005 18.3001C25.5005 17.4808 24.8202 16.8001 24.0005 16.8001ZM3.46363 25.8001H12.0008V28.8001H1.96382L3.46363 25.8001ZM15.7506 25.8001C15.3365 25.8001 15.0006 26.136 15.0006 26.5501V29.5501C15.0006 29.9643 15.3365 30.3001 15.7506 30.3001H18.7506C19.1648 30.3001 19.5006 29.9643 19.5006 29.5501V26.5501C19.5006 26.136 19.1648 25.8001 18.7506 25.8001H15.7506ZM22.5005 25.8001C22.0864 25.8001 21.7505 26.136 21.7505 26.5501V29.5501C21.7505 29.9643 22.0864 30.3001 22.5005 30.3001H25.5005C25.9147 30.3001 26.2505 29.9643 26.2505 29.5501V26.5501C26.2505 26.136 25.9147 25.8001 25.5005 25.8001H22.5005ZM29.2505 25.8001C28.8363 25.8001 28.5005 26.136 28.5005 26.5501V29.5501C28.5005 29.9643 28.8363 30.3001 29.2505 30.3001H32.2504C32.6646 30.3001 33.0004 29.9643 33.0004 29.5501V26.5501C33.0004 26.136 32.6646 25.8001 32.2504 25.8001H29.2505ZM36.0004 25.8001H44.5376L46.0376 28.8001H36.0005L36.0004 25.8001ZM16.5006 27.3001H18.0006V28.8001H16.5006V27.3001ZM23.2505 27.3001H24.7505V28.8001H23.2505V27.3001ZM30.0004 27.3001H31.5004V28.8001H30.0004V27.3001ZM4.50076 30.3001H12.0007V42.3002H11.2507C10.8365 42.3002 10.5007 42.636 10.5007 43.0502V45.3002H4.50076V30.3001ZM36.0004 30.3001H43.5003V45.3002H37.5004V43.0502C37.5004 42.9467 37.4796 42.8469 37.4418 42.7572C37.3279 42.488 37.0611 42.3002 36.7504 42.3002H36.0004V30.3001ZM6.75073 31.8001C6.33656 31.8001 6.00074 32.136 6.00074 32.5501V35.5501C6.00074 35.9643 6.33656 36.3002 6.75073 36.3002H9.75069C10.1649 36.3002 10.5007 35.9643 10.5007 35.5501V32.5501C10.5007 32.136 10.1649 31.8001 9.75069 31.8001H6.75073ZM38.2503 31.8001C37.8362 31.8001 37.5004 32.136 37.5004 32.5501V35.5501C37.5004 35.9643 37.8362 36.3002 38.2503 36.3002H41.2503C41.6645 36.3002 42.0003 35.9643 42.0003 35.5501V32.5501C42.0003 32.136 41.6645 31.8001 41.2503 31.8001H38.2503ZM7.50072 33.3001H9.0007V34.8001H7.50072V33.3001ZM39.0003 33.3001H40.5003V34.8001H39.0003V33.3001ZM21.0006 34.8001H27.0005V42.3002H21.0006V34.8001ZM6.75073 37.8002C6.33656 37.8002 6.00074 38.136 6.00074 38.5502V41.5502C6.00074 41.9643 6.33656 42.3002 6.75073 42.3002H9.75069C10.1649 42.3002 10.5007 41.9643 10.5007 41.5502V38.5502C10.5007 38.136 10.1649 37.8002 9.75069 37.8002H6.75073ZM38.2503 37.8002C37.8362 37.8002 37.5004 38.136 37.5004 38.5502V41.5502C37.5004 41.9643 37.8362 42.3002 38.2503 42.3002H41.2503C41.6645 42.3002 42.0003 41.9643 42.0003 41.5502V38.5502C42.0003 38.136 41.6645 37.8002 41.2503 37.8002H38.2503ZM7.50072 39.3002H9.0007V40.8002H7.50072V39.3002ZM39.0003 39.3002H40.5003V40.8002H39.0003V39.3002ZM12.0007 43.8002H36.0004V45.3002H12.0007V43.8002Z" fill="white"/>
</svg>
