<svg width="47" height="48" viewBox="0 0 47 48" fill="none" xmlns="http://www.w3.org/2000/svg">
<path d="M46.9999 5.50357C46.9999 4.30917 46.5353 3.18646 45.6884 2.33944C45.6163 2.26932 45.5423 2.20155 45.4655 2.13456C45.3977 2.0566 45.3291 1.98021 45.2571 1.90813C44.4136 1.06431 43.2912 0.600098 42.096 0.600098C40.9008 0.600098 39.7792 1.0647 38.937 1.90693L29.36 11.4835L26.6169 11.0647C27.0424 10.3674 26.9538 9.44166 26.3521 8.83884C25.6666 8.15485 24.4752 8.15329 23.7893 8.83884L22.2325 10.3956L21.7307 10.3188C22.0096 9.65911 21.8803 8.86695 21.3444 8.33112C20.66 7.64675 19.4664 7.64558 18.7816 8.33112L17.4473 9.66503L16.806 9.56749C16.9646 8.9642 16.8076 8.29475 16.3363 7.82231C15.6511 7.13832 14.4582 7.13832 13.7747 7.8227L12.6621 8.93527L7.71161 8.1796L7.28343 8.10399L4.67437 10.713L3.87246 11.5819L21.2402 19.6048L11.6185 29.2253L2.79718 28.3721L0.199951 30.9705L10.5155 37.0836L16.6295 47.4001L19.2267 44.8021L18.3731 35.982L27.9928 26.3623L36.0138 43.7219L39.4827 40.3L38.6647 34.939L39.7757 33.8276C40.1185 33.4849 40.3073 33.0297 40.3073 32.5467C40.3073 32.0625 40.1185 31.6073 39.7757 31.2657C39.3225 30.8117 38.6373 30.6358 38.0316 30.7941L37.9341 30.1548L39.268 28.8204C39.6108 28.4781 39.7992 28.0233 39.7992 27.5395C39.7992 27.0557 39.6108 26.6013 39.2688 26.2585C38.7517 25.7418 37.9345 25.5957 37.2815 25.8707L37.2047 25.3701L38.7604 23.8144C39.1031 23.472 39.2916 23.0172 39.292 22.5335C39.292 22.0497 39.1031 21.5944 38.7604 21.2517C38.1794 20.6707 37.2208 20.5665 36.5349 20.9869L36.1161 18.2428L45.6919 8.66702C46.5346 7.82124 46.9995 6.6985 47 5.50409L46.9999 5.50357ZM44.5092 7.48072L34.3341 17.6548L35.3703 24.4436L37.3803 22.4324C37.4481 22.365 37.5115 22.3646 37.5774 22.432C37.6118 22.4665 37.6189 22.5041 37.6189 22.5303C37.6189 22.5566 37.6114 22.5942 37.5774 22.6287L35.4224 24.7848L36.1009 29.2319L37.8888 27.4405C37.9562 27.3743 38.0189 27.3727 38.0855 27.4401C38.1199 27.4742 38.1266 27.5122 38.1266 27.5384C38.1266 27.5647 38.1195 27.6027 38.0855 27.6368L36.1526 29.57L36.8307 34.0182L38.3969 32.4481C38.4655 32.3807 38.5258 32.3807 38.594 32.4481C38.628 32.4822 38.6343 32.5202 38.6343 32.5464C38.6343 32.5727 38.6273 32.6103 38.5932 32.6448L36.8824 34.3558L37.6996 39.7086L36.5341 40.8588L28.5068 23.4832L16.6319 35.3561L17.4855 44.1774L16.9688 44.6941L11.7354 35.863L2.90423 30.6296L3.42015 30.1137L12.2415 30.9665L24.1165 19.0916L6.70365 11.048L7.85735 9.89428L13.2447 10.7162L14.9558 9.00507C15.0235 8.93769 15.085 8.93769 15.1524 9.00507C15.2069 9.05874 15.2061 9.14728 15.1524 9.20172L13.5858 10.7691L18.0306 11.446L19.9627 9.51391C20.0305 9.44614 20.092 9.44614 20.1597 9.51391C20.2134 9.56758 20.213 9.65612 20.1597 9.70939L18.3691 11.4977L22.815 12.1774L24.9689 10.0224C25.0386 9.95347 25.1009 9.95621 25.1659 10.0212C25.2208 10.0761 25.2208 10.1638 25.1671 10.2179L23.1527 12.2291L29.9429 13.2653L40.118 3.09025C40.6441 2.56374 41.3465 2.27346 42.0939 2.27346C42.8422 2.27346 43.5442 2.56374 44.0723 3.09064C44.1295 3.14783 44.1824 3.21012 44.2357 3.2724L44.3269 3.36368C44.39 3.41813 44.4535 3.47258 44.5075 3.52586C45.034 4.05276 45.3243 4.75477 45.3243 5.50261C45.3263 6.25083 45.0356 6.95285 44.5087 7.48055L44.5092 7.48072Z" fill="white"/>
</svg>
