<svg width="48" height="48" viewBox="0 0 48 48" fill="none" xmlns="http://www.w3.org/2000/svg">
<path d="M24.0001 45.8182C36.0502 45.8182 45.8182 36.0502 45.8182 24.0001C45.8182 11.9499 36.0502 2.18188 24.0001 2.18188C11.9499 2.18188 2.18188 11.9499 2.18188 24.0001C2.18188 36.0502 11.9499 45.8182 24.0001 45.8182Z" stroke="white" stroke-width="2.5"/>
<path d="M4.36377 31.6212C7.23504 32.7721 9.30232 32.7721 10.5645 31.6212C12.4583 29.8932 10.8241 24.6525 13.4772 23.207C16.1281 21.7616 20.17 28.1685 23.9467 26.0609C27.7234 23.9521 23.591 18.3296 26.2114 16.0507C28.8329 13.7707 32.2409 16.342 32.8365 12.5303C33.4321 8.71977 30.0569 10.3725 29.4089 6.77032C28.978 4.37032 28.978 3.10814 29.4089 2.98486M29.4765 45.1092C27.4332 43.0169 26.6969 41.0729 27.2696 39.275C28.1281 36.5783 29.5452 36.7376 30.1627 35.0707C30.7801 33.4038 29.0358 31.0289 32.9063 28.9998C35.4874 27.647 39.0361 29.2136 43.5525 33.7027" stroke="white" stroke-width="2.5" stroke-linecap="round"/>
</svg>
