<svg width="45" height="45" viewBox="0 0 45 45" fill="none" xmlns="http://www.w3.org/2000/svg">
<path d="M35.2 23.1875L25.4125 19.5875L21.8125 9.8C21.5994 9.22587 21.2157 8.73071 20.7129 8.38104C20.2102 8.03138 19.6124 7.84396 19 7.84396C18.3876 7.84396 17.7899 8.03138 17.2871 8.38104C16.7844 8.73071 16.4006 9.22587 16.1875 9.8L12.5875 19.5875L2.80004 23.1875C2.22591 23.4006 1.73075 23.7843 1.38108 24.2871C1.03142 24.7899 0.843994 25.3876 0.843994 26C0.843994 26.6124 1.03142 27.2101 1.38108 27.7129C1.73075 28.2157 2.22591 28.5994 2.80004 28.8125L12.5875 32.4125L16.1875 42.2C16.4006 42.7741 16.7844 43.2693 17.2871 43.619C17.7899 43.9686 18.3876 44.156 19 44.156C19.6124 44.156 20.2102 43.9686 20.7129 43.619C21.2157 43.2693 21.5994 42.7741 21.8125 42.2L25.4125 32.4125L35.2 28.8125C35.7742 28.5994 36.2693 28.2157 36.619 27.7129C36.9687 27.2101 37.1561 26.6124 37.1561 26C37.1561 25.3876 36.9687 24.7899 36.619 24.2871C36.2693 23.7843 35.7742 23.4006 35.2 23.1875ZM24.3813 29.6C23.9724 29.7489 23.601 29.9855 23.2933 30.2932C22.9856 30.601 22.7489 30.9723 22.6 31.3812L19 41.1687L15.4 31.3812C15.2511 30.9723 15.0145 30.601 14.7068 30.2932C14.3991 29.9855 14.0277 29.7489 13.6188 29.6L3.83129 26L13.6188 22.4C14.0277 22.2511 14.3991 22.0145 14.7068 21.7068C15.0145 21.399 15.2511 21.0277 15.4 20.6188L19 10.8312L22.6 20.6188C22.7489 21.0277 22.9856 21.399 23.2933 21.7068C23.601 22.0145 23.9724 22.2511 24.3813 22.4L34.1688 26L24.3813 29.6ZM25 6.5C25 6.10218 25.1581 5.72064 25.4394 5.43934C25.7207 5.15804 26.1022 5 26.5 5H29.5V2C29.5 1.60218 29.6581 1.22064 29.9394 0.93934C30.2207 0.658035 30.6022 0.5 31 0.5C31.3979 0.5 31.7794 0.658035 32.0607 0.93934C32.342 1.22064 32.5 1.60218 32.5 2V5H35.5C35.8979 5 36.2794 5.15804 36.5607 5.43934C36.842 5.72064 37 6.10218 37 6.5C37 6.89782 36.842 7.27936 36.5607 7.56066C36.2794 7.84196 35.8979 8 35.5 8H32.5V11C32.5 11.3978 32.342 11.7794 32.0607 12.0607C31.7794 12.342 31.3979 12.5 31 12.5C30.6022 12.5 30.2207 12.342 29.9394 12.0607C29.6581 11.7794 29.5 11.3978 29.5 11V8H26.5C26.1022 8 25.7207 7.84196 25.4394 7.56066C25.1581 7.27936 25 6.89782 25 6.5ZM44.5 15.5C44.5 15.8978 44.342 16.2794 44.0607 16.5607C43.7794 16.842 43.3979 17 43 17H41.5V18.5C41.5 18.8978 41.342 19.2794 41.0607 19.5607C40.7794 19.842 40.3979 20 40 20C39.6022 20 39.2207 19.842 38.9394 19.5607C38.6581 19.2794 38.5 18.8978 38.5 18.5V17H37C36.6022 17 36.2207 16.842 35.9394 16.5607C35.6581 16.2794 35.5 15.8978 35.5 15.5C35.5 15.1022 35.6581 14.7206 35.9394 14.4393C36.2207 14.158 36.6022 14 37 14H38.5V12.5C38.5 12.1022 38.6581 11.7206 38.9394 11.4393C39.2207 11.158 39.6022 11 40 11C40.3979 11 40.7794 11.158 41.0607 11.4393C41.342 11.7206 41.5 12.1022 41.5 12.5V14H43C43.3979 14 43.7794 14.158 44.0607 14.4393C44.342 14.7206 44.5 15.1022 44.5 15.5Z" fill="#EE7203"/>
</svg>
