<svg width="48" height="40" viewBox="0 0 48 40" fill="none" xmlns="http://www.w3.org/2000/svg">
<path d="M48 10.3847C47.952 3.13441 32.384 0.799988 23.92 0.799988C15.936 0.799988 0.048 2.56873 0 10.4962V33.5058C0 36.151 1.784 38.2464 5.568 39.7363C5.68 39.7841 6.672 39.8797 6.672 38.8758V29.2353C8.096 28.59 9.768 28.0243 11.656 27.5702V30.7332C11.688 32.1354 12.304 33.2588 13.76 33.2588C15.848 33.1951 15.96 31.4423 16 30.7173V23.8335C16 23.3475 15.64 22.9173 15.16 22.8694C14.6 22.8216 14.136 23.2519 14.136 23.7937V30.6615C14.136 31.6176 13.528 31.6176 13.528 30.7173C13.528 30.7173 13.528 20.2641 13.528 20.2482C13.712 20.0968 14.496 19.6268 17.624 19.3798C17.8 19.3638 28.176 16.5195 28.488 16.408C28.928 16.2406 29.288 16.9497 28.776 17.1409L21.824 19.6825C21.456 19.818 21.216 20.1606 21.216 20.551V32.0637C21.216 32.5497 21.568 32.98 22.056 33.0278C22.616 33.0835 23.08 32.6453 23.08 32.1036V26.2157C31.84 26.0962 38.336 27.7932 41.744 29.4743V38.8758C41.744 39.5849 42.424 39.9912 43.016 39.7203C46.208 38.2623 47.992 35.9996 47.992 33.5058V10.3847H48ZM4.832 37.4496C2.864 36.3979 1.84 35.163 1.752 33.6891C1.8 33.5775 1.752 13.4999 1.752 13.4999C2.792 14.6312 4.168 15.4758 4.832 15.906V37.4496ZM42.168 14.5755C41.896 14.7428 41.752 15.0455 41.752 15.3642V27.4268C36.336 25.0445 29.04 24.2797 23.088 24.3593V21.1963L29.432 18.8778C29.992 18.6707 30.44 18.2484 30.688 17.7066C30.936 17.1649 30.952 16.5514 30.728 15.9698C30.272 14.7826 28.944 14.2488 27.856 14.6631C27.792 14.687 17.6 17.5234 17.48 17.5313C14.328 17.7783 12.688 18.2723 12 19.1726C11.72 19.5311 11.608 19.9534 11.664 20.3836V25.658C9.816 26.0882 8.144 26.6061 6.68 27.2116V15.3642C6.68 15.0216 6.576 14.703 6.272 14.5436C5.192 13.962 2.184 11.9064 2.184 10.0978C2.184 6.58426 11.136 2.66434 23.968 2.66434C36.8 2.66434 45.752 6.58426 45.752 10.0978C45.752 11.9463 43.168 13.954 42.168 14.5755ZM43.592 37.3222V15.8662C44.208 15.4598 45.296 14.695 46.152 13.6831C46.152 13.6831 46.144 33.466 46.152 33.5138C46.144 34.916 45.232 36.2545 43.592 37.3222Z" fill="#EE7203"/>
</svg>
