<svg width="42" height="42" viewBox="0 0 42 42" fill="none" xmlns="http://www.w3.org/2000/svg">
<path d="M1.80005 13.8H21M21 28.2H40.2001M21 1.79999V40.2M1.80005 6.59999C1.80005 5.32695 2.30576 4.10605 3.20594 3.20588C4.10611 2.3057 5.32701 1.79999 6.60005 1.79999H35.4001C36.6731 1.79999 37.894 2.3057 38.7942 3.20588C39.6943 4.10605 40.2001 5.32695 40.2001 6.59999V35.4C40.2001 36.673 39.6943 37.8939 38.7942 38.7941C37.894 39.6943 36.6731 40.2 35.4001 40.2H6.60005C5.32701 40.2 4.10611 39.6943 3.20594 38.7941C2.30576 37.8939 1.80005 36.673 1.80005 35.4V6.59999Z" stroke="#EE7203" stroke-width="2.5" stroke-linecap="round" stroke-linejoin="round"/>
</svg>
