<svg width="48" height="48" viewBox="0 0 48 48" fill="none" xmlns="http://www.w3.org/2000/svg">
<g clip-path="url(#clip0_1340_2334)">
<path fill-rule="evenodd" clip-rule="evenodd" d="M5 16.9188V38C5 40.7614 7.23858 43 10 43H38C40.7614 43 43 40.7614 43 38V10C43 7.23858 40.7614 5 38 5H10C9.65958 5 9.32711 5.03402 9.0058 5.09884L9.65429 7.07066C9.70484 7.22435 9.77321 7.36961 9.85703 7.50402C9.90435 7.50135 9.95202 7.5 10 7.5H38C39.3807 7.5 40.5 8.61929 40.5 10V38C40.5 39.3807 39.3807 40.5 38 40.5H10C8.61929 40.5 7.5 39.3807 7.5 38V18.5374C6.55929 18.771 5.46508 18.3329 5.10011 17.2232L5 16.9188Z" fill="#EE7203"/>
<path d="M16.25 34C16.25 33.0335 17.0335 32.25 18 32.25H30C30.9665 32.25 31.75 33.0335 31.75 34V41.75H16.25V34Z" stroke="#EE7203" stroke-width="2.5"/>
<circle cx="24" cy="23" r="4.75" stroke="#EE7203" stroke-width="2.5"/>
<path d="M6.05006 5.88841C6.35157 4.97163 7.64843 4.97164 7.94994 5.88841L8.82212 8.54036C8.92134 8.84204 9.15796 9.07866 9.45964 9.17788L12.1116 10.0501C13.0284 10.3516 13.0284 11.6484 12.1116 11.9499L9.45964 12.8221C9.15796 12.9213 8.92134 13.158 8.82212 13.4596L7.94994 16.1116C7.64843 17.0284 6.35157 17.0284 6.05006 16.1116L5.17788 13.4596C5.07866 13.158 4.84204 12.9213 4.54036 12.8221L1.88841 11.9499C0.971634 11.6484 0.971637 10.3516 1.88841 10.0501L4.54036 9.17788C4.84204 9.07866 5.07866 8.84204 5.17788 8.54036L6.05006 5.88841Z" fill="#EE7203"/>
<path d="M13.525 14.4442C13.6758 13.9858 14.3242 13.9858 14.475 14.4442L15.1585 16.5227C15.2082 16.6735 15.3265 16.7918 15.4773 16.8415L17.5558 17.525C18.0142 17.6758 18.0142 18.3242 17.5558 18.475L15.4773 19.1585C15.3265 19.2082 15.2082 19.3265 15.1585 19.4773L14.475 21.5558C14.3242 22.0142 13.6758 22.0142 13.525 21.5558L12.8415 19.4773C12.7918 19.3265 12.6735 19.2082 12.5227 19.1585L10.4442 18.475C9.98582 18.3242 9.98582 17.6758 10.4442 17.525L12.5227 16.8415C12.6735 16.7918 12.7918 16.6735 12.8415 16.5227L13.525 14.4442Z" fill="#EE7203"/>
</g>
<defs>
<clipPath id="clip0_1340_2334">
<rect width="48" height="48" fill="white"/>
</clipPath>
</defs>
</svg>
