<svg width="39" height="43" viewBox="0 0 39 43" fill="none" xmlns="http://www.w3.org/2000/svg">
<path d="M26.6134 0.0450055C26.9992 0.141375 27.331 0.387017 27.5358 0.727931C27.7405 1.06884 27.8015 1.47712 27.7054 1.86301L26.9554 4.86301C26.9115 5.05803 26.8291 5.24232 26.7129 5.40504C26.5968 5.56776 26.4493 5.70563 26.2792 5.81054C26.109 5.91545 25.9196 5.98529 25.7221 6.01595C25.5245 6.04661 25.3228 6.03748 25.1289 5.98909C24.9349 5.9407 24.7526 5.85403 24.5926 5.73417C24.4326 5.61431 24.2982 5.46368 24.1973 5.29113C24.0963 5.11858 24.0309 4.9276 24.0048 4.7294C23.9787 4.5312 23.9925 4.32979 24.0454 4.13701L24.7954 1.13701C24.8918 0.751173 25.1374 0.419401 25.4783 0.214628C25.8192 0.00985509 26.2275 -0.0511568 26.6134 0.0450055ZM35.5624 3.43801C35.7021 3.57734 35.8129 3.74287 35.8885 3.9251C35.9641 4.10734 36.0031 4.3027 36.0031 4.50001C36.0031 4.69731 35.9641 4.89267 35.8885 5.07491C35.8129 5.25714 35.7021 5.42267 35.5624 5.56201L32.5624 8.56201C32.4229 8.70127 32.2574 8.81171 32.0753 8.887C31.8931 8.9623 31.6979 9.00098 31.5008 9.00084C31.3037 9.0007 31.1086 8.96174 30.9266 8.88619C30.7445 8.81064 30.5792 8.69997 30.4399 8.56051C30.3006 8.42104 30.1902 8.25551 30.1149 8.07337C30.0396 7.89123 30.0009 7.69604 30.0011 7.49894C30.0012 7.30185 30.0402 7.10672 30.1157 6.92468C30.1913 6.74264 30.3019 6.57727 30.4414 6.43801L33.4414 3.43801C33.7227 3.1568 34.1041 2.99883 34.5019 2.99883C34.8996 2.99883 35.2811 3.1568 35.5624 3.43801ZM12.8524 36.096C13.6056 37.3483 14.7899 38.2827 16.183 38.7238C17.5762 39.1648 19.0825 39.0823 20.4191 38.4917C21.7558 37.9011 22.8309 36.8429 23.4428 35.5159C24.0547 34.1888 24.1612 32.684 23.7424 31.284L12.8524 36.096ZM10.0924 37.317L7.09839 38.64C6.32433 38.983 5.46469 39.084 4.63221 38.9298C3.79973 38.7756 3.03329 38.3734 2.43339 37.776L1.23339 36.576C0.635617 35.9809 0.231784 35.2189 0.0749123 34.3901C-0.0819594 33.5613 0.0154635 32.7044 0.354389 31.932L11.9674 5.50501C12.2429 4.88124 12.6661 4.33393 13.2004 3.91035C13.7348 3.48677 14.3642 3.19967 15.0344 3.07384C15.7046 2.94802 16.3953 2.98726 17.0469 3.18817C17.6985 3.38909 18.2914 3.74563 18.7744 4.22701L34.7704 20.175C35.2523 20.6556 35.6097 21.2466 35.8116 21.8965C36.0135 22.5465 36.0539 23.2359 35.9292 23.905C35.8045 24.5741 35.5184 25.2027 35.0959 25.7362C34.6734 26.2698 34.1271 26.6923 33.5044 26.967L26.4994 30.063C27.2399 32.1971 27.1508 34.5315 26.2498 36.6029C25.3489 38.6744 23.702 40.3312 21.636 41.2447C19.5701 42.1581 17.2362 42.2612 15.0977 41.5336C12.9592 40.806 11.1726 39.3009 10.0924 37.317ZM37.5004 12H34.5004C34.1026 12 33.721 12.158 33.4397 12.4393C33.1584 12.7207 33.0004 13.1022 33.0004 13.5C33.0004 13.8978 33.1584 14.2794 33.4397 14.5607C33.721 14.842 34.1026 15 34.5004 15H37.5004C37.8982 15 38.2797 14.842 38.5611 14.5607C38.8424 14.2794 39.0004 13.8978 39.0004 13.5C39.0004 13.1022 38.8424 12.7207 38.5611 12.4393C38.2797 12.158 37.8982 12 37.5004 12ZM14.7154 6.71401L3.09939 33.138C3.00335 33.3566 2.97574 33.5991 3.02018 33.8336C3.06463 34.0682 3.17905 34.2837 3.34839 34.452L4.55139 35.652C4.72282 35.8224 4.94169 35.937 5.17936 35.9809C5.41703 36.0248 5.66242 35.9959 5.88339 35.898L32.2894 24.222C32.4658 24.1444 32.6206 24.0249 32.7404 23.8739C32.8601 23.7229 32.9413 23.5449 32.9767 23.3555C33.0122 23.166 33.0009 22.9708 32.9439 22.7867C32.8868 22.6026 32.7858 22.4352 32.6494 22.299L16.6594 6.35101C16.5217 6.21415 16.3529 6.11272 16.1674 6.05544C15.982 5.99816 15.7854 5.98673 15.5945 6.02213C15.4036 6.05753 15.2242 6.1387 15.0716 6.25869C14.919 6.37867 14.7978 6.53388 14.7184 6.71101L14.7154 6.71401Z" fill="#EE7203"/>
</svg>
