<svg width="38" height="38" viewBox="0 0 38 38" fill="none" xmlns="http://www.w3.org/2000/svg">
<path fill-rule="evenodd" clip-rule="evenodd" d="M0 11.9188V33C0 35.7614 2.23858 38 5 38H33C35.7614 38 38 35.7614 38 33V5C38 2.23858 35.7614 0 33 0H5C4.65958 0 4.32711 0.0340198 4.0058 0.0988451L4.65429 2.07066C4.70484 2.22435 4.77322 2.36961 4.85703 2.50402C4.90435 2.50135 4.95202 2.5 5 2.5H33C34.3807 2.5 35.5 3.61929 35.5 5V33C35.5 34.3807 34.3807 35.5 33 35.5H5C3.61929 35.5 2.5 34.3807 2.5 33V13.5374C1.55929 13.771 0.465083 13.3329 0.100111 12.2232L0 11.9188Z" fill="#EE7203"/>
</svg>
