<svg width="46" height="46" viewBox="0 0 46 46" fill="none" xmlns="http://www.w3.org/2000/svg">
<path d="M8.55168 29.7425C7.02764 29.7425 5.53782 30.1944 4.27063 31.0411C3.00344 31.8878 2.01578 33.0913 1.43256 34.4993C0.84933 35.9074 0.696732 37.4567 0.994057 38.9515C1.29138 40.4462 2.02528 41.8192 3.10294 42.8969C4.1806 43.9746 5.55362 44.7085 7.04838 45.0058C8.54313 45.3031 10.0925 45.1505 11.5005 44.5673C12.9085 43.9841 14.112 42.9964 14.9587 41.7292C15.8054 40.462 16.2574 38.9722 16.2574 37.4482C16.2574 35.4045 15.4455 33.4445 14.0004 31.9994C12.5553 30.5543 10.5954 29.7425 8.55168 29.7425ZM8.55168 43.2274C7.40865 43.2274 6.29129 42.8885 5.34089 42.2535C4.3905 41.6184 3.64976 40.7158 3.21234 39.6598C2.77492 38.6038 2.66047 37.4418 2.88346 36.3207C3.10646 35.1996 3.65688 34.1699 4.46512 33.3616C5.27337 32.5534 6.30313 32.0029 7.4242 31.7799C8.54527 31.557 9.70729 31.6714 10.7633 32.1088C11.8193 32.5462 12.7219 33.287 13.357 34.2374C13.992 35.1878 14.3309 36.3051 14.3309 37.4482C14.3309 38.9809 13.7221 40.4509 12.6382 41.5347C11.5544 42.6185 10.0844 43.2274 8.55168 43.2274ZM1.12773 18.4657L5.26232 14.3311L1.12773 10.1965C0.946996 10.0158 0.845459 9.77066 0.845459 9.51506C0.845459 9.25946 0.946996 9.01432 1.12773 8.83359C1.30847 8.65285 1.5536 8.55131 1.80921 8.55131C2.06481 8.55131 2.30994 8.65285 2.49068 8.83359L6.62526 12.9682L10.7598 8.83359C10.9406 8.65285 11.1857 8.55131 11.4413 8.55131C11.6969 8.55131 11.942 8.65285 12.1228 8.83359C12.3035 9.01432 12.4051 9.25946 12.4051 9.51506C12.4051 9.77066 12.3035 10.0158 12.1228 10.1965L7.9882 14.3311L12.1228 18.4657C12.2123 18.5552 12.2833 18.6614 12.3317 18.7784C12.3801 18.8953 12.4051 19.0206 12.4051 19.1472C12.4051 19.2737 12.3801 19.399 12.3317 19.516C12.2833 19.6329 12.2123 19.7391 12.1228 19.8286C12.0333 19.9181 11.927 19.9891 11.8101 20.0375C11.6932 20.086 11.5679 20.1109 11.4413 20.1109C11.3148 20.1109 11.1894 20.086 11.0725 20.0375C10.9556 19.9891 10.8493 19.9181 10.7598 19.8286L6.62526 15.6941L2.49068 19.8286C2.30994 20.0094 2.06481 20.1109 1.80921 20.1109C1.5536 20.1109 1.30847 20.0094 1.12773 19.8286C0.946996 19.6479 0.845459 19.4028 0.845459 19.1472C0.845459 18.8916 0.946996 18.6464 1.12773 18.4657ZM44.8719 41.5827C45.0527 41.7635 45.1542 42.0086 45.1542 42.2642C45.1542 42.5198 45.0527 42.765 44.8719 42.9457C44.6912 43.1264 44.4461 43.228 44.1905 43.228C43.9349 43.228 43.6897 43.1264 43.509 42.9457L39.3744 38.8111L35.2398 42.9457C35.0591 43.1264 34.814 43.228 34.5584 43.228C34.3028 43.228 34.0576 43.1264 33.8769 42.9457C33.6962 42.765 33.5946 42.5198 33.5946 42.2642C33.5946 42.0086 33.6962 41.7635 33.8769 41.5827L38.0115 37.4482L33.8769 33.3136C33.6962 33.1328 33.5946 32.8877 33.5946 32.6321C33.5946 32.3765 33.6962 32.1314 33.8769 31.9506C34.0576 31.7699 34.3028 31.6684 34.5584 31.6684C34.814 31.6684 35.0591 31.7699 35.2398 31.9506L39.3744 36.0852L43.509 31.9506C43.5985 31.8612 43.7047 31.7902 43.8217 31.7417C43.9386 31.6933 44.0639 31.6684 44.1905 31.6684C44.317 31.6684 44.4424 31.6933 44.5593 31.7417C44.6762 31.7902 44.7825 31.8612 44.8719 31.9506C44.9614 32.0401 45.0324 32.1464 45.0809 32.2633C45.1293 32.3802 45.1542 32.5056 45.1542 32.6321C45.1542 32.7587 45.1293 32.884 45.0809 33.0009C45.0324 33.1179 44.9614 33.2241 44.8719 33.3136L40.7374 37.4482L44.8719 41.5827ZM33.7445 19.0894C32.343 24.1462 28.0206 28.5168 23.2334 29.7136C23.1546 29.7331 23.0738 29.7428 22.9926 29.7425C22.757 29.7441 22.529 29.6594 22.3516 29.5042C22.1743 29.3491 22.06 29.1343 22.0303 28.9006C22.0007 28.6668 22.0577 28.4303 22.1907 28.2358C22.3236 28.0413 22.5233 27.9022 22.7518 27.845C26.831 26.824 30.667 22.9278 31.8734 18.5765C32.709 15.5592 32.7283 10.9888 28.0832 6.34369L25.8895 4.13553V11.4415C25.8895 11.6969 25.788 11.9419 25.6074 12.1226C25.4267 12.3032 25.1817 12.4047 24.9263 12.4047C24.6708 12.4047 24.4258 12.3032 24.2452 12.1226C24.0645 11.9419 23.9631 11.6969 23.9631 11.4415V1.80937C23.9631 1.55391 24.0645 1.30892 24.2452 1.12828C24.4258 0.947642 24.6708 0.846161 24.9263 0.846161H34.5584C34.8138 0.846161 35.0588 0.947642 35.2395 1.12828C35.4201 1.30892 35.5216 1.55391 35.5216 1.80937C35.5216 2.06483 35.4201 2.30983 35.2395 2.49046C35.0588 2.6711 34.8138 2.77258 34.5584 2.77258H27.2524L29.4606 4.98074C33.5952 9.11773 35.1194 14.1288 33.7445 19.0894Z" fill="#EE7203" stroke="#EE7203"/>
</svg>
