<svg width="800" height="572" viewBox="0 0 800 572" fill="none" xmlns="http://www.w3.org/2000/svg">
<path d="M800 319.687C743.7 406.516 672.671 482.847 590.113 545.241C461.003 639.795 330.115 708.795 195.783 678.906C154.783 669.573 88.6729 626.018 96.3395 524.796C104.199 450.989 130.569 380.362 173.005 319.465V319.465C173.005 319.465 84.8951 450.908 143.561 530.019C205.005 613.129 378.115 522.907 407.114 503.13C407.114 503.13 527.336 425.353 591.668 319.687H800Z" fill="white" fill-opacity="0.1"/>
<path d="M0 252.911C56.4236 165.855 127.513 89.2397 210.109 26.4688C338.997 -67.8637 469.996 -136.974 604.217 -106.863C645.216 -97.7523 711.327 -54.1972 704.216 47.0241C696.532 121.112 670.152 192.034 627.55 253.133V253.133C627.55 253.133 715.66 122.357 656.994 42.6908C595.661 -40.5306 422.441 49.913 393.441 69.4684C393.441 69.4684 273.331 147.245 208.887 253.022L0 252.911Z" fill="white" fill-opacity="0.1"/>
</svg>
