<svg width="192" height="48" viewBox="0 0 192 48" fill="none" xmlns="http://www.w3.org/2000/svg">
<path d="M49.2043 27.1774C49.4504 27.6652 49.8095 28.0871 50.2516 28.408C50.7174 28.7332 51.2394 28.9693 51.7912 29.1045C52.3881 29.2583 53.0022 29.3357 53.6187 29.3349C54.0785 29.327 54.5371 29.285 54.9907 29.2092C55.4647 29.145 55.9259 29.0072 56.3574 28.8007C56.7648 28.6057 57.1229 28.3211 57.4047 27.9681C57.6987 27.5807 57.8486 27.103 57.8289 26.6171C57.8394 26.353 57.795 26.0896 57.6986 25.8436C57.6022 25.5975 57.4557 25.3741 57.2686 25.1875C56.8412 24.7894 56.3394 24.4798 55.7919 24.2764C55.1096 24.0142 54.4097 23.8007 53.6973 23.6375C52.9275 23.4595 52.1263 23.2552 51.3513 23.0301C50.546 22.8313 49.7538 22.583 48.9791 22.2865C48.2291 22.0123 47.5233 21.6294 46.8845 21.1501C46.2726 20.6797 45.769 20.0833 45.4078 19.4011C45.0144 18.6156 44.8219 17.7448 44.8475 16.8667C44.8399 15.8531 45.1058 14.8564 45.6173 13.9813C46.0863 13.1678 46.728 12.4671 47.4972 11.9286C48.2909 11.3714 49.1775 10.9601 50.1155 10.7137C51.0679 10.4548 52.0504 10.3227 53.0374 10.321C54.1412 10.3171 55.2415 10.4437 56.3155 10.698C57.3118 10.9338 58.2561 11.3509 59.1014 11.9286C59.9092 12.489 60.5716 13.234 61.0336 14.1018C61.5347 15.092 61.7795 16.192 61.7458 17.3013H57.1377C57.1195 16.7415 56.9783 16.1926 56.724 15.6937C56.5052 15.2868 56.1862 14.9425 55.7971 14.6935C55.3908 14.4403 54.9419 14.2628 54.4723 14.1698C53.9357 14.0658 53.3902 14.015 52.8437 14.018C52.4549 14.019 52.0671 14.0593 51.6864 14.1384C51.3142 14.217 50.9593 14.3625 50.6391 14.5678C50.3293 14.7624 50.065 15.0214 49.8641 15.3271C49.6485 15.6715 49.5426 16.0732 49.5604 16.4792C49.5406 16.844 49.6241 17.2069 49.8013 17.5265C50.0454 17.8549 50.3777 18.1073 50.7596 18.2543C51.399 18.5339 52.0612 18.7582 52.739 18.9246L56.0223 19.7834C56.4307 19.8672 56.991 20.0138 57.7137 20.2233C58.4742 20.4575 59.1973 20.7996 59.8607 21.2392C60.5963 21.7299 61.2237 22.3661 61.7039 23.1086C62.2477 23.9971 62.5173 25.0263 62.4789 26.0673C62.4878 27.0201 62.2894 27.9635 61.8977 28.8321C61.5061 29.6901 60.9176 30.4437 60.1801 31.0315C59.3378 31.6914 58.3758 32.1821 57.3471 32.4768C56.0758 32.8414 54.7579 33.0178 53.4354 33.0004C52.2589 33.0033 51.0869 32.8555 49.9479 32.5606C48.8748 32.2919 47.862 31.8228 46.9631 31.1781C46.099 30.552 45.3956 29.7301 44.9103 28.7798C44.3789 27.706 44.1268 26.5155 44.1772 25.3184H48.8063C48.7862 25.9595 48.9229 26.5958 49.2043 27.1722" fill="#EE7203"/>
<path d="M74.8994 32.5238V30.3349H74.8104C74.3171 31.1943 73.5737 31.8829 72.6791 32.3091C71.8407 32.7055 70.9254 32.9129 69.998 32.9165C69.0297 32.9485 68.0644 32.7938 67.1546 32.4609C66.4652 32.196 65.8594 31.7512 65.4003 31.1727C64.9556 30.5679 64.6498 29.8724 64.5049 29.1357C64.3239 28.2625 64.2362 27.3725 64.2431 26.4808V16.8246H68.5684V25.6901C68.5048 26.6948 68.7166 27.6979 69.1811 28.5911C69.5896 29.2247 70.307 29.5442 71.3438 29.5442C72.522 29.5442 73.3756 29.1986 73.8992 28.4969C74.4229 27.7952 74.6952 26.6484 74.6952 25.0512V16.8246H79.0153V32.5342L74.8994 32.5238Z" fill="#EE7203"/>
<path d="M91.4219 29.2718C91.8885 28.9966 92.2847 28.6165 92.5791 28.1617C92.8828 27.6814 93.0941 27.1486 93.2023 26.5907C93.3239 25.9803 93.3853 25.3594 93.3856 24.737C93.3852 24.1155 93.3185 23.4958 93.1866 22.8885C93.0672 22.311 92.8455 21.7594 92.532 21.2599C92.2345 20.7911 91.8331 20.397 91.359 20.1079C90.8287 19.8004 90.2227 19.648 89.61 19.668C88.9871 19.6454 88.3703 19.7978 87.8296 20.1079C87.362 20.3932 86.9661 20.7819 86.6723 21.2442C86.3651 21.7384 86.152 22.2853 86.0439 22.8571C85.9233 23.4764 85.8637 24.106 85.8659 24.737C85.8645 25.36 85.9294 25.9815 86.0597 26.5907C86.1793 27.1485 86.3974 27.6805 86.7038 28.1617C86.9998 28.6174 87.4001 28.9962 87.8715 29.2666C88.4217 29.5454 89.0299 29.6907 89.6467 29.6907C90.2635 29.6907 90.8717 29.5454 91.4219 29.2666V29.2718ZM85.8031 16.8246V18.8249H85.8659C86.3376 18.0246 87.0354 17.3815 87.8715 16.9764C88.71 16.5832 89.6265 16.3845 90.5526 16.3952C91.6602 16.3665 92.7582 16.6073 93.7521 17.0969C94.6202 17.543 95.3785 18.1761 95.9724 18.9506C96.578 19.7532 97.0226 20.6654 97.2816 21.637C97.5688 22.6791 97.7133 23.7555 97.711 24.8365C97.713 25.8642 97.5684 26.8869 97.2816 27.8737C97.0188 28.8088 96.5798 29.685 95.9881 30.4553C95.4094 31.2056 94.6705 31.8174 93.8254 32.2462C92.8852 32.7099 91.8469 32.9399 90.7987 32.9165C89.8687 32.9332 88.9469 32.7399 88.1019 32.3509C87.2837 31.9573 86.5844 31.3538 86.0754 30.6019H86.0178V38.0169H81.6924V16.8246H85.8031Z" fill="#EE7203"/>
<path d="M101.408 27.1147C101.585 27.8752 101.895 28.5984 102.324 29.2512C102.735 29.8744 103.281 30.397 103.921 30.7803C104.631 31.1922 105.442 31.3972 106.262 31.372C107.158 31.4022 108.046 31.1982 108.838 30.7803C109.521 30.407 110.107 29.8799 110.551 29.2407C110.993 28.5965 111.31 27.8755 111.488 27.1147C111.872 25.5282 111.872 23.8731 111.488 22.2866C111.314 21.5165 110.996 20.7862 110.551 20.1344C110.11 19.4984 109.527 18.9732 108.849 18.6001C108.055 18.1844 107.168 17.9806 106.272 18.0083C105.453 17.9856 104.642 18.1904 103.932 18.6001C103.291 18.9849 102.745 19.5093 102.335 20.1344C101.905 20.7886 101.595 21.5137 101.418 22.2761C101.034 23.8626 101.034 25.5178 101.418 27.1042L101.408 27.1147ZM111.938 32.524V29.5445H111.876C111.667 30.0625 111.364 30.5368 110.98 30.9426C110.584 31.3671 110.127 31.7306 109.624 32.0213C109.112 32.3161 108.565 32.5448 107.995 32.7021C107.435 32.8629 106.855 32.9457 106.272 32.9482C105.189 32.9759 104.113 32.7518 103.131 32.2936C102.268 31.8742 101.513 31.2613 100.926 30.5027C100.324 29.7232 99.8791 28.8339 99.6168 27.8845C99.0444 25.8094 99.0444 23.6181 99.6168 21.543C99.8759 20.5844 100.321 19.6859 100.926 18.8986C101.516 18.1381 102.269 17.5206 103.131 17.092C104.111 16.6252 105.187 16.3973 106.272 16.4269C106.853 16.4249 107.432 16.4953 107.995 16.6364C108.548 16.7756 109.078 16.9962 109.566 17.2909C110.052 17.581 110.491 17.945 110.865 18.3697C111.246 18.8054 111.539 19.3103 111.729 19.8568H111.792V10.8395H113.693V32.524H111.938Z" fill="#EE7203"/>
<path d="M127.653 21.5012C127.434 20.8525 127.099 20.2491 126.664 19.7208C126.23 19.2038 125.696 18.7814 125.093 18.4797C124.443 18.1545 123.724 17.9927 122.998 18.0084C122.272 17.9948 121.554 18.1564 120.903 18.4797C120.3 18.7814 119.766 19.2038 119.332 19.7208C118.892 20.257 118.547 20.8644 118.311 21.5169C118.048 22.19 117.872 22.8939 117.788 23.6115H127.957C127.94 22.8976 127.811 22.1907 127.575 21.5169L127.653 21.5012ZM118.154 27.3452C118.337 28.0603 118.651 28.7352 119.081 29.3351C119.515 29.9237 120.066 30.4158 120.699 30.7803C121.412 31.1822 122.222 31.3814 123.04 31.3564C124.237 31.4281 125.415 31.034 126.328 30.2567C127.155 29.4725 127.728 28.4583 127.973 27.3452H129.895C129.601 28.9224 128.816 30.3666 127.653 31.4716C126.571 32.4456 125.033 32.9326 123.04 32.9326C121.934 32.9593 120.837 32.7355 119.83 32.278C118.958 31.8699 118.2 31.2552 117.62 30.4871C117.039 29.7013 116.611 28.8131 116.358 27.8688C116.08 26.8358 115.941 25.7704 115.944 24.7007C115.945 23.6743 116.084 22.6527 116.358 21.6635C116.614 20.7076 117.042 19.8062 117.62 19.0034C118.201 18.2142 118.958 17.5707 119.83 17.1234C120.826 16.6273 121.928 16.3828 123.04 16.4113C124.1 16.3664 125.155 16.5953 126.101 17.0759C127.048 17.5564 127.854 18.2725 128.444 19.1552C129.021 20.0132 129.429 20.9727 129.648 21.983C129.893 23.0415 129.996 24.1282 129.952 25.2139H117.882C117.885 25.9372 117.982 26.6571 118.17 27.3556" fill="#EE7203"/>
<path d="M140.702 21.0453C141.228 21.046 141.754 21.004 142.273 20.9197C142.746 20.8523 143.201 20.6941 143.614 20.4536C144.006 20.213 144.326 19.8711 144.541 19.4639C144.797 18.9456 144.917 18.371 144.891 17.7934C144.917 17.216 144.796 16.6415 144.541 16.123C144.328 15.7162 144.007 15.3756 143.614 15.1385C143.202 14.8941 142.747 14.7339 142.273 14.6672C141.753 14.5872 141.228 14.547 140.702 14.5468H136.984V21.0453H140.702ZM142.011 10.8393C143.196 10.8089 144.375 11.0099 145.483 11.4311C146.364 11.7803 147.159 12.3162 147.813 13.002C148.402 13.639 148.848 14.3941 149.123 15.2171C149.667 16.8897 149.667 18.6919 149.123 20.3646C148.854 21.1946 148.407 21.9559 147.813 22.5954C147.161 23.2828 146.365 23.819 145.483 24.1663C144.375 24.5875 143.196 24.7885 142.011 24.758H136.984V32.5186H132.208V10.8393H142.011Z" fill="#EE7203"/>
<path d="M161.376 32.5238V30.3349H161.287C160.794 31.1942 160.05 31.8829 159.156 32.3091C158.317 32.7048 157.402 32.9122 156.475 32.9165C155.505 32.948 154.538 32.7933 153.626 32.4609C152.938 32.1959 152.334 31.751 151.877 31.1727C151.428 30.5695 151.12 29.8735 150.976 29.1357C150.797 28.2623 150.711 27.3724 150.72 26.4808V16.8246H155.061V25.6901C154.993 26.6945 155.203 27.6983 155.668 28.5911C156.071 29.2247 156.794 29.5442 157.831 29.5442C159.009 29.5442 159.857 29.1986 160.386 28.4969C160.915 27.7952 161.177 26.6484 161.177 25.0512V16.8246H165.502V32.5342L161.376 32.5238Z" fill="#EE7203"/>
<path d="M179.495 22.7736C179.367 22.2025 179.14 21.6584 178.824 21.166C178.534 20.7131 178.144 20.3332 177.683 20.0558C177.173 19.7875 176.606 19.6473 176.031 19.6473C175.455 19.6473 174.888 19.7875 174.379 20.0558C173.911 20.3297 173.514 20.7101 173.221 21.166C172.905 21.6584 172.678 22.2025 172.551 22.7736C172.406 23.4021 172.334 24.0452 172.336 24.6902C172.334 25.33 172.406 25.9678 172.551 26.591C172.682 27.1494 172.909 27.6808 173.221 28.162C173.514 28.6179 173.911 28.9983 174.379 29.2721C174.888 29.5404 175.455 29.6807 176.031 29.6807C176.606 29.6807 177.173 29.5404 177.683 29.2721C178.144 28.9948 178.534 28.6149 178.824 28.162C179.137 27.6808 179.363 27.1494 179.495 26.591C179.636 25.9745 179.706 25.3437 179.704 24.7111C179.708 24.0664 179.638 23.4233 179.495 22.7945V22.7736ZM172.488 10.8395V18.7362H172.551C173.065 17.9358 173.815 17.3153 174.698 16.961C175.59 16.5861 176.548 16.3938 177.515 16.3955C178.35 16.3988 179.176 16.5761 179.938 16.916C180.701 17.2559 181.385 17.751 181.945 18.3697C182.611 19.1185 183.123 19.9901 183.454 20.9356C183.862 22.1334 184.057 23.3936 184.03 24.6588C184.056 25.9222 183.861 27.1806 183.454 28.3767C183.123 29.3221 182.611 30.1938 181.945 30.9426C181.385 31.5613 180.701 32.0564 179.938 32.3963C179.176 32.7362 178.35 32.9135 177.515 32.9168C176.463 32.9234 175.418 32.7315 174.436 32.3512C173.535 32.0096 172.79 31.3503 172.342 30.4975H172.284V32.4979H168.152V10.8395H172.488Z" fill="#EE7203"/>
<path d="M40.0326 25.7341C37.2154 30.0791 33.661 33.8988 29.5297 37.021C23.069 41.7526 16.5192 45.2054 9.79715 43.7097C7.7455 43.2427 4.43727 41.0632 4.82092 35.998C5.2142 32.3046 6.5338 28.7704 8.65734 25.723C8.65734 25.723 4.24823 32.3005 7.18393 36.2593C10.2586 40.4182 18.9212 35.9034 20.3723 34.9138C20.3723 34.9138 26.3883 31.0217 29.6076 25.7341H40.0326Z" fill="#EE7203"/>
<path d="M0 22.3925C2.82348 18.0362 6.38083 14.2023 10.514 11.0612C16.9637 6.34069 23.5189 2.88235 30.2355 4.38912C32.2871 4.84504 35.5953 7.02458 35.2395 12.0898C34.855 15.7972 33.5349 19.3462 31.4031 22.4036C31.4031 22.4036 35.8122 15.8595 32.8765 11.8729C29.8074 7.70846 21.1393 12.2343 19.6881 13.2129C19.6881 13.2129 13.6777 17.1049 10.4529 22.3981L0 22.3925Z" fill="#EE7203"/>
</svg>
